<svg
  width="22"
  height="22"
  viewBox="0 0 22 22"
  fill="none"
  xmlns="http://www.w3.org/2000/svg"
>
  <path
    d="M11.0002 10.52C13.6512 10.52 15.8002 8.37101 15.8002 5.72004C15.8002 3.06908 13.6512 0.920044 11.0002 0.920044C8.34923 0.920044 6.2002 3.06908 6.2002 5.72004C6.2002 8.37101 8.34923 10.52 11.0002 10.52Z"
    fill="#A5A5A5"
  />
  <path
    d="M12.0176 11.48H9.98237C8.78849 11.4838 7.60705 11.7226 6.5055 12.183C5.40395 12.6434 4.40386 13.3162 3.56234 14.1631C2.72082 15.01 2.05434 16.0143 1.60096 17.1187C1.14758 18.2232 0.91618 19.4061 0.919968 20.6C0.919968 20.7273 0.970539 20.8494 1.06056 20.9394C1.15057 21.0294 1.27266 21.08 1.39997 21.08H20.6C20.7332 21.0679 20.8569 21.0056 20.946 20.9058C21.0351 20.806 21.083 20.6761 21.08 20.5424C21.0749 18.1404 20.1185 15.8383 18.42 14.1399C16.7216 12.4415 14.4195 11.4851 12.0176 11.48V11.48Z"
    fill="#A5A5A5"
  />
</svg>
